HIERARCHY
ROOT Hips
{
	OFFSET 0.000000 0.000000 0.000000 
	CHANNELS 6 Xposition Yposition Zposition Zrotation Yrotation Xrotation
	JOINT LeftUpLeg
	{
		OFFSET 1.363060 -1.794630 0.839290 
		CHANNELS 3 Zrotation Yrotation Xrotation
		JOINT LeftLeg
		{
			OFFSET 2.448110 -6.726130 0.000000 
			CHANNELS 3 Zrotation Yrotation Xrotation
			JOINT LeftFoot
			{
				OFFSET 2.562200 -7.039590 0.000000 
				CHANNELS 3 Zrotation Yrotation Xrotation
				JOINT LeftToeBase
				{
					OFFSET 0.157640 -0.433110 2.322550 
					CHANNELS 3 Zrotation Yrotation Xrotation
					End Site
					{
						OFFSET 0.000000 0.000000 0.000000 
					}
				}
			}
		}
	}
	JOINT RightUpLeg
	{
		OFFSET -1.305520 -1.794630 0.839290 
		CHANNELS 3 Zrotation Yrotation Xrotation
		JOINT RightLeg
		{
			OFFSET -2.542530 -6.985550 0.000000 
			CHANNELS 3 Zrotation Yrotation Xrotation
			JOINT RightFoot
			{
				OFFSET -2.568260 -7.056230 0.000000 
				CHANNELS 3 Zrotation Yrotation Xrotation
				JOINT RightToeBase
				{
					OFFSET -0.164730 -0.452590 2.363150 
					CHANNELS 3 Zrotation Yrotation Xrotation
					End Site
					{
						OFFSET 0.000000 0.000000 0.000000 
					}
				}
			}
		}
	}
	JOINT Spine
	{
		OFFSET 0.028270 2.035590 -0.193380 
		CHANNELS 3 Zrotation Yrotation Xrotation
		JOINT Spine1
		{
			OFFSET 0.056720 2.048850 -0.042750 
			CHANNELS 3 Zrotation Yrotation Xrotation
			JOINT Neck1
			{
				OFFSET -0.054170 1.746240 0.172020 
				CHANNELS 3 Zrotation Yrotation Xrotation
				JOINT Head
				{
					OFFSET 0.104070 1.761360 -0.123970 
					CHANNELS 3 Zrotation Yrotation Xrotation
					End Site
					{
						OFFSET 0.000000 0.000000 0.000000 
					}
				}
			}
			JOINT LeftArm
			{
				OFFSET 3.362410 1.200890 -0.311210 
				CHANNELS 3 Zrotation Yrotation Xrotation
				JOINT LeftForeArm
				{
					OFFSET 4.983000 -0.000000 -0.000000 
					CHANNELS 3 Zrotation Yrotation Xrotation
					JOINT LeftHand
					{
						OFFSET 3.483560 -0.000000 -0.000000 
						CHANNELS 3 Zrotation Yrotation Xrotation
						JOINT LeftHandIndex1
						{
							OFFSET 0.715260 -0.000000 -0.000000 
							CHANNELS 3 Zrotation Yrotation Xrotation
							End Site
							{
								OFFSET 0.000000 0.000000 0.000000 
							}
						}
					}
				}
			}
			JOINT RightArm
			{
				OFFSET -3.136600 1.374050 -0.404650 
				CHANNELS 3 Zrotation Yrotation Xrotation
				JOINT RightForeArm
				{
					OFFSET -5.241900 -0.000000 -0.000000 
					CHANNELS 3 Zrotation Yrotation Xrotation
					JOINT RightHand
					{
						OFFSET -3.444170 -0.000000 -0.000000 
						CHANNELS 3 Zrotation Yrotation Xrotation
						JOINT RightHandIndex1
						{
							OFFSET -0.622530 -0.000000 -0.000000 
							CHANNELS 3 Zrotation Yrotation Xrotation
							End Site
							{
								OFFSET 0.000000 0.000000 0.000000 
							}
						}
					}
				}
			}
		}
	}
}
MOTION
Frames: 10
Frame Time: 0.041667
10.719716 16.093840 11.829015 166.932517 -56.720440 -159.345163 -5.673252 -6.835990 -36.255674 12.941756 21.297489 61.750767 -0.168202 6.700291 34.626031 0.000000 0.000000 0.000000 -8.698665 -0.677569 -42.880888 -17.565438 -22.770698 72.432504 -38.368960 -1.750604 143.957825 -3.790200 11.875900 -35.294400 -0.536633 4.096295 -2.401550 6.841171 3.259000 -4.506617 1.362310 15.270136 1.672391 -4.644100 6.350700 -2.361100 -79.501798 -20.203231 30.442977 120.196156 -48.320885 -99.823140 -2.468608 7.229874 36.491717 -7.125000 0.000000 0.000000 61.828515 9.812815 3.814717 -17.314695 29.513275 -15.771470 0.978440 8.057641 -23.432429 7.125000 0.000000 0.000000 
10.709198 15.896357 11.859387 167.143323 -56.270908 -160.433795 -5.783247 -6.026532 -36.136278 12.187421 20.963239 59.459790 -0.088777 7.007652 35.412619 0.000000 0.000000 0.000000 -8.820099 -0.685769 -42.839768 -16.995058 -22.662603 70.598203 -38.201470 -1.549261 142.865179 -4.204900 12.428200 -37.264200 -0.572216 3.970072 -2.337873 6.325671 3.236343 -4.668808 1.314317 15.232899 1.502226 -4.667000 6.301400 -2.569200 -78.717718 -21.139056 29.849527 120.257378 -48.160005 -100.057894 -2.504077 7.117032 36.369354 -7.125000 0.000000 0.000000 61.667488 10.476061 3.996838 -17.338108 29.451731 -15.798554 1.015497 8.091450 -23.556367 7.125000 0.000000 0.000000 
10.699074 15.721225 11.891205 167.255620 -55.886191 -161.343722 -5.957741 -5.180216 -36.141757 11.474056 20.618392 57.316730 -0.008589 7.308975 36.156432 0.000000 0.000000 0.000000 -8.935178 -0.759873 -42.842991 -16.488125 -22.543756 68.951757 -38.065370 -1.641295 141.936372 -4.292500 12.539800 -37.669500 -0.567990 3.724972 -2.326444 5.811552 3.137143 -4.815957 1.334122 15.206497 1.356667 -4.531700 6.290600 -2.730400 -77.802437 -22.001787 29.000879 120.233391 -48.054154 -100.264139 -2.546217 6.984702 36.225766 -7.125000 0.000000 0.000000 61.558979 11.166162 4.367348 -17.469685 29.458503 -15.853983 1.164545 8.038484 -23.912954 7.125000 0.000000 0.000000 
10.688030 15.557269 11.917502 167.358346 -55.481169 -162.215397 -6.132511 -4.534565 -36.073115 10.800942 20.265416 55.332289 0.070492 7.597228 36.843447 0.000000 0.000000 0.000000 -9.081384 -0.707232 -42.817079 -16.010716 -22.439946 67.421619 -37.931302 -1.748594 141.058461 -4.312900 12.565600 -37.763300 -0.550833 3.418459 -2.331967 5.256226 3.004059 -4.927469 1.408890 15.133934 1.201331 -4.324600 6.269600 -2.926800 -76.369711 -22.624129 27.860774 120.379373 -47.867789 -100.629966 -2.543558 6.813541 35.955259 -7.125000 0.000000 0.000000 61.621738 11.977729 4.714314 -17.669246 29.510934 -15.973645 1.182851 8.016491 -24.580149 7.125000 0.000000 0.000000 
10.671463 15.396995 11.934068 167.313598 -55.107908 -163.011944 -6.366235 -4.029333 -35.898588 10.207175 19.917084 53.634553 0.141736 7.852122 37.433835 0.000000 0.000000 0.000000 -9.292077 -0.586369 -42.675956 -15.539280 -22.336354 65.994825 -37.661919 -0.611108 140.089240 -5.189300 13.593800 -41.634100 -0.541293 3.125953 -2.323439 4.625607 2.882116 -5.019808 1.439532 14.954198 1.000776 -4.264100 6.156300 -3.190200 -74.617587 -23.214533 26.707250 120.499751 -47.674702 -100.977332 -2.502261 6.611213 35.883028 -7.125000 0.000000 0.000000 61.979042 12.760822 5.052638 -17.949000 29.635626 -16.125265 1.196342 7.951031 -25.692921 7.125000 0.000000 0.000000 
10.645430 15.247502 11.951949 167.309881 -54.886062 -163.853716 -6.556868 -3.617769 -35.639748 9.724739 19.604900 52.267964 0.204120 8.069895 37.925771 0.000000 0.000000 0.000000 -9.526122 -0.453556 -42.358140 -15.183258 -22.245150 64.902804 -37.421817 0.406861 139.302029 -5.917400 14.347800 -44.649300 -0.514233 2.799257 -2.316188 3.992913 2.731269 -5.077822 1.470629 14.678752 0.767085 -4.184700 5.994800 -3.520800 -73.015626 -23.887725 25.508806 120.542578 -47.527979 -101.254096 -2.440354 6.434049 36.109260 -7.125000 0.000000 0.000000 62.316825 13.475246 5.478248 -18.262075 29.812164 -16.305922 1.264240 7.882640 -26.743938 7.125000 0.000000 0.000000 
10.618477 15.116548 11.972329 167.470452 -54.635870 -164.873721 -6.631569 -3.254662 -35.347345 9.311202 19.301685 51.066998 0.265409 8.274700 38.382248 0.000000 0.000000 0.000000 -9.389836 -1.050634 -42.573326 -14.606565 -22.010920 63.114651 -37.198223 0.521370 138.280299 -6.118300 14.542000 -45.454700 -0.450221 2.397617 -2.561784 2.931337 2.553690 -6.357292 1.567480 14.219316 0.495915 -3.812000 5.859200 -3.684000 -71.196986 -23.200007 24.034975 120.860630 -47.274344 -101.706676 -2.345336 6.230000 36.393114 -7.125000 0.000000 0.000000 63.192343 13.181293 6.046579 -18.731253 30.210631 -16.678573 1.269871 7.825154 -26.953298 7.125000 0.000000 0.000000 
10.598492 15.006236 11.991393 167.752551 -54.176913 -165.724249 -6.586990 -2.805488 -35.170909 8.914436 19.038821 49.845034 0.331480 8.494498 38.865642 0.000000 0.000000 0.000000 -9.517768 -0.762186 -42.445025 -14.285338 -21.929767 62.177356 -37.067904 0.600069 137.705814 -6.197600 14.617100 -45.769700 -0.440214 2.490867 -2.568607 3.243971 2.554108 -6.503982 1.627821 13.493079 0.231852 -3.583300 5.531100 -3.967000 -70.006704 -23.853969 22.976907 120.989744 -46.930765 -102.067906 -2.297477 6.140466 36.734742 -7.125000 0.000000 0.000000 62.684112 13.653255 5.952098 -18.983897 30.189423 -16.869871 1.253041 7.841838 -27.012141 7.125000 0.000000 0.000000 
10.578770 14.907888 12.002306 167.998699 -53.618589 -166.462813 -6.615091 -2.243436 -35.037685 8.599511 18.797815 48.863755 0.388893 8.684403 39.281998 0.000000 0.000000 0.000000 -10.005264 0.387171 -41.929691 -14.221892 -22.033551 62.072801 -37.008942 0.954930 137.600732 -6.383200 14.789700 -46.501100 -0.455479 2.576760 -2.584213 3.261035 2.569827 -6.718245 1.695359 12.628637 -0.084852 -3.384600 5.120600 -4.277800 -68.439868 -24.291370 21.808270 121.190291 -46.554266 -102.475222 -2.268518 5.973418 36.790504 -7.125000 0.000000 0.000000 62.566941 14.092636 5.849359 -19.326185 30.243739 -17.096468 1.292224 7.758606 -27.496421 7.125000 0.000000 0.000000 
10.554577 14.843463 12.008091 167.888601 -53.231557 -167.509221 -6.827706 -1.929962 -34.273909 8.465216 18.598579 48.556895 0.416835 8.771795 39.480131 0.000000 0.000000 0.000000 -10.457391 1.214917 -40.913459 -14.146048 -22.065449 61.878673 -36.910875 1.623475 137.495422 -6.769800 15.134900 -47.998000 -0.410098 2.579032 -2.599742 3.638164 2.492303 -7.003608 1.724154 11.845113 -0.482627 -3.231100 4.728400 -4.661700 -66.856589 -24.813287 20.198602 121.288322 -46.166733 -102.902287 -2.246248 5.833408 36.666577 -7.125000 0.000000 0.000000 62.194688 14.664416 5.706103 -19.712895 30.272324 -17.395708 1.147458 7.813277 -27.729119 7.125000 0.000000 0.000000 
